<svg width="209" height="27" viewBox="0 0 209 27" fill="none" xmlns="http://www.w3.org/2000/svg">
<path d="M15.0469 20.9375L0.015625 14.6719V11.5L15.0469 5.21875V9.34375L5.76562 13.0781L15.0469 16.7969V20.9375ZM28.5312 0.21875L21.0312 26.4844H16.25L23.7969 0.21875H28.5312ZM45.7031 0.703125L41.9375 12.125L46.0625 26H39.2656L36.6094 15.1562V26H30.0312V0.703125H36.6094V10.5312L39.5312 0.703125H45.7031ZM193.016 5.21875L208.047 11.4688V14.6562L193.016 20.9375V16.8125L202.297 13.0781L193.016 9.35938V5.21875Z" fill="#FF8303"/>
<path d="M52.6719 13.2969H46.75V11.9062C46.75 10.3021 46.9323 9.06771 47.2969 8.20312C47.6719 7.32812 48.4167 6.55729 49.5312 5.89062C50.6458 5.22396 52.0938 4.89062 53.875 4.89062C56.0104 4.89062 57.6198 5.27083 58.7031 6.03125C59.7865 6.78125 60.4375 7.70833 60.6562 8.8125C60.875 9.90625 60.9844 12.1667 60.9844 15.5938V26H54.8438V24.1562C54.4583 24.8958 53.9583 25.4531 53.3438 25.8281C52.7396 26.1927 52.0156 26.375 51.1719 26.375C50.0677 26.375 49.0521 26.0677 48.125 25.4531C47.2083 24.8281 46.75 23.4688 46.75 21.375V19.6719C46.75 18.1198 46.9948 17.0625 47.4844 16.5C47.974 15.9375 49.1875 15.2812 51.125 14.5312C53.1979 13.7188 54.3073 13.1719 54.4531 12.8906C54.599 12.6094 54.6719 12.0365 54.6719 11.1719C54.6719 10.0885 54.5885 9.38542 54.4219 9.0625C54.2656 8.72917 54 8.5625 53.625 8.5625C53.1979 8.5625 52.9323 8.70312 52.8281 8.98438C52.724 9.25521 52.6719 9.96875 52.6719 11.125V13.2969ZM54.6719 16.1406C53.6615 16.8802 53.0729 17.5 52.9062 18C52.75 18.5 52.6719 19.2188 52.6719 20.1562C52.6719 21.2292 52.7396 21.9219 52.875 22.2344C53.0208 22.5469 53.3021 22.7031 53.7188 22.7031C54.1146 22.7031 54.3698 22.5833 54.4844 22.3438C54.6094 22.0938 54.6719 21.4479 54.6719 20.4062V16.1406ZM77.1094 13.0938H71.1562V10.7031C71.1562 9.86979 71.0885 9.30729 70.9531 9.01562C70.8177 8.71354 70.5677 8.5625 70.2031 8.5625C69.8385 8.5625 69.5938 8.69271 69.4688 8.95312C69.3438 9.21354 69.2812 9.79688 69.2812 10.7031V20.4844C69.2812 21.224 69.375 21.7812 69.5625 22.1562C69.75 22.5208 70.026 22.7031 70.3906 22.7031C70.8177 22.7031 71.1042 22.5104 71.25 22.125C71.4062 21.7396 71.4844 21.0104 71.4844 19.9375V17.4688H77.1094C77.099 19.125 77.0365 20.3698 76.9219 21.2031C76.8177 22.026 76.4688 22.875 75.875 23.75C75.2917 24.6146 74.526 25.2708 73.5781 25.7188C72.6302 26.1562 71.4583 26.375 70.0625 26.375C68.2812 26.375 66.8698 26.0729 65.8281 25.4688C64.7865 24.8542 64.0469 24 63.6094 22.9062C63.1823 21.8021 62.9688 20.2396 62.9688 18.2188V12.3281C62.9688 10.5677 63.1458 9.23958 63.5 8.34375C63.8542 7.44792 64.6094 6.65104 65.7656 5.95312C66.9219 5.24479 68.3281 4.89062 69.9844 4.89062C71.6302 4.89062 73.0365 5.23958 74.2031 5.9375C75.3698 6.63542 76.1458 7.51562 76.5312 8.57812C76.9167 9.64062 77.1094 11.1458 77.1094 13.0938ZM85.3125 0.703125V6.39062C85.8542 5.89062 86.4375 5.51562 87.0625 5.26562C87.6979 5.01562 88.375 4.89062 89.0938 4.89062C90.1979 4.89062 91.1354 5.17188 91.9062 5.73438C92.6875 6.29688 93.1615 6.94792 93.3281 7.6875C93.5052 8.41667 93.5938 9.75521 93.5938 11.7031V26H87.2812V11.4062C87.2812 10.1979 87.2188 9.42188 87.0938 9.07812C86.9792 8.73438 86.7135 8.5625 86.2969 8.5625C85.9115 8.5625 85.651 8.73958 85.5156 9.09375C85.3802 9.44792 85.3125 10.151 85.3125 11.2031V26H79V0.703125H85.3125ZM110.078 16H101.906V20.4844C101.906 21.4219 101.974 22.026 102.109 22.2969C102.245 22.5677 102.505 22.7031 102.891 22.7031C103.37 22.7031 103.688 22.526 103.844 22.1719C104.01 21.8073 104.094 21.1094 104.094 20.0781V17.3438H110.078V18.875C110.078 20.1562 109.995 21.1406 109.828 21.8281C109.672 22.5156 109.297 23.25 108.703 24.0312C108.109 24.8125 107.354 25.401 106.438 25.7969C105.531 26.1823 104.391 26.375 103.016 26.375C101.682 26.375 100.505 26.1823 99.4844 25.7969C98.4635 25.4115 97.6667 24.8854 97.0938 24.2188C96.5312 23.5417 96.1406 22.8021 95.9219 22C95.7031 21.1875 95.5938 20.0104 95.5938 18.4688V12.4219C95.5938 10.6094 95.8385 9.18229 96.3281 8.14062C96.8177 7.08854 97.6198 6.28646 98.7344 5.73438C99.849 5.17188 101.13 4.89062 102.578 4.89062C104.349 4.89062 105.807 5.22917 106.953 5.90625C108.109 6.57292 108.917 7.46354 109.375 8.57812C109.844 9.68229 110.078 11.2396 110.078 13.25V16ZM103.75 12.625V11.1094C103.75 10.0365 103.693 9.34375 103.578 9.03125C103.464 8.71875 103.229 8.5625 102.875 8.5625C102.438 8.5625 102.167 8.69792 102.062 8.96875C101.958 9.22917 101.906 9.94271 101.906 11.1094V12.625H103.75ZM118.656 0.703125V4H112.156V0.703125H118.656ZM118.656 5.26562V26H112.156V5.26562H118.656ZM133.828 11.8906H128.234V10.7656C128.234 9.80729 128.177 9.20312 128.062 8.95312C127.958 8.69271 127.688 8.5625 127.25 8.5625C126.896 8.5625 126.63 8.68229 126.453 8.92188C126.276 9.15104 126.188 9.5 126.188 9.96875C126.188 10.6042 126.229 11.0729 126.312 11.375C126.406 11.6667 126.672 11.9896 127.109 12.3438C127.557 12.6979 128.469 13.2135 129.844 13.8906C131.677 14.7865 132.88 15.6302 133.453 16.4219C134.026 17.2135 134.312 18.3646 134.312 19.875C134.312 21.5625 134.094 22.8385 133.656 23.7031C133.219 24.5573 132.484 25.2188 131.453 25.6875C130.432 26.1458 129.198 26.375 127.75 26.375C126.146 26.375 124.771 26.125 123.625 25.625C122.49 25.125 121.708 24.4479 121.281 23.5938C120.854 22.7396 120.641 21.4479 120.641 19.7188V18.7188H126.234V20.0312C126.234 21.1458 126.302 21.8698 126.438 22.2031C126.583 22.5365 126.865 22.7031 127.281 22.7031C127.729 22.7031 128.042 22.5938 128.219 22.375C128.396 22.1458 128.484 21.6719 128.484 20.9531C128.484 19.9635 128.37 19.3438 128.141 19.0938C127.901 18.8438 126.677 18.1042 124.469 16.875C122.615 15.8333 121.484 14.8906 121.078 14.0469C120.672 13.1927 120.469 12.1823 120.469 11.0156C120.469 9.35938 120.688 8.14062 121.125 7.35938C121.562 6.56771 122.302 5.95833 123.344 5.53125C124.396 5.10417 125.615 4.89062 127 4.89062C128.375 4.89062 129.542 5.06771 130.5 5.42188C131.469 5.76562 132.208 6.22396 132.719 6.79688C133.24 7.36979 133.552 7.90104 133.656 8.39062C133.771 8.88021 133.828 9.64583 133.828 10.6875V11.8906ZM142.312 0.703125V6.39062C142.854 5.89062 143.438 5.51562 144.062 5.26562C144.698 5.01562 145.375 4.89062 146.094 4.89062C147.198 4.89062 148.135 5.17188 148.906 5.73438C149.688 6.29688 150.161 6.94792 150.328 7.6875C150.505 8.41667 150.594 9.75521 150.594 11.7031V26H144.281V11.4062C144.281 10.1979 144.219 9.42188 144.094 9.07812C143.979 8.73438 143.714 8.5625 143.297 8.5625C142.911 8.5625 142.651 8.73958 142.516 9.09375C142.38 9.44792 142.312 10.151 142.312 11.2031V26H136V0.703125H142.312ZM165.828 5.26562L162.875 26H154.641L151.469 5.26562H157.109L158.875 20.3906C159.01 19.2865 159.24 16.5781 159.562 12.2656C159.75 9.85938 159.958 7.52604 160.188 5.26562H165.828ZM173.281 0.703125V4H166.781V0.703125H173.281ZM173.281 5.26562V26H166.781V5.26562H173.281ZM182.062 0.703125V26H175.562V0.703125H182.062ZM190.844 0.703125V4H184.344V0.703125H190.844ZM190.844 5.26562V26H184.344V5.26562H190.844Z" fill="white"/>
</svg>
