<svg width="209" height="27" viewBox="0 0 209 27" fill="none" xmlns="http://www.w3.org/2000/svg">
<path d="M15.0469 21.4375L0.015625 15.1719V12L15.0469 5.71875V9.84375L5.76562 13.5781L15.0469 17.2969V21.4375ZM28.5312 0.71875L21.0312 26.9844H16.25L23.7969 0.71875H28.5312ZM45.7031 1.20312L41.9375 12.625L46.0625 26.5H39.2656L36.6094 15.6562V26.5H30.0312V1.20312H36.6094V11.0312L39.5312 1.20312H45.7031ZM52.6719 13.7969H46.75V12.4062C46.75 10.8021 46.9323 9.56771 47.2969 8.70312C47.6719 7.82812 48.4167 7.05729 49.5312 6.39062C50.6458 5.72396 52.0938 5.39062 53.875 5.39062C56.0104 5.39062 57.6198 5.77083 58.7031 6.53125C59.7865 7.28125 60.4375 8.20833 60.6562 9.3125C60.875 10.4062 60.9844 12.6667 60.9844 16.0938V26.5H54.8438V24.6562C54.4583 25.3958 53.9583 25.9531 53.3438 26.3281C52.7396 26.6927 52.0156 26.875 51.1719 26.875C50.0677 26.875 49.0521 26.5677 48.125 25.9531C47.2083 25.3281 46.75 23.9688 46.75 21.875V20.1719C46.75 18.6198 46.9948 17.5625 47.4844 17C47.974 16.4375 49.1875 15.7812 51.125 15.0312C53.1979 14.2188 54.3073 13.6719 54.4531 13.3906C54.599 13.1094 54.6719 12.5365 54.6719 11.6719C54.6719 10.5885 54.5885 9.88542 54.4219 9.5625C54.2656 9.22917 54 9.0625 53.625 9.0625C53.1979 9.0625 52.9323 9.20312 52.8281 9.48438C52.724 9.75521 52.6719 10.4688 52.6719 11.625V13.7969ZM54.6719 16.6406C53.6615 17.3802 53.0729 18 52.9062 18.5C52.75 19 52.6719 19.7188 52.6719 20.6562C52.6719 21.7292 52.7396 22.4219 52.875 22.7344C53.0208 23.0469 53.3021 23.2031 53.7188 23.2031C54.1146 23.2031 54.3698 23.0833 54.4844 22.8438C54.6094 22.5938 54.6719 21.9479 54.6719 20.9062V16.6406ZM77.1094 13.5938H71.1562V11.2031C71.1562 10.3698 71.0885 9.80729 70.9531 9.51562C70.8177 9.21354 70.5677 9.0625 70.2031 9.0625C69.8385 9.0625 69.5938 9.19271 69.4688 9.45312C69.3438 9.71354 69.2812 10.2969 69.2812 11.2031V20.9844C69.2812 21.724 69.375 22.2812 69.5625 22.6562C69.75 23.0208 70.026 23.2031 70.3906 23.2031C70.8177 23.2031 71.1042 23.0104 71.25 22.625C71.4062 22.2396 71.4844 21.5104 71.4844 20.4375V17.9688H77.1094C77.099 19.625 77.0365 20.8698 76.9219 21.7031C76.8177 22.526 76.4688 23.375 75.875 24.25C75.2917 25.1146 74.526 25.7708 73.5781 26.2188C72.6302 26.6562 71.4583 26.875 70.0625 26.875C68.2812 26.875 66.8698 26.5729 65.8281 25.9688C64.7865 25.3542 64.0469 24.5 63.6094 23.4062C63.1823 22.3021 62.9688 20.7396 62.9688 18.7188V12.8281C62.9688 11.0677 63.1458 9.73958 63.5 8.84375C63.8542 7.94792 64.6094 7.15104 65.7656 6.45312C66.9219 5.74479 68.3281 5.39062 69.9844 5.39062C71.6302 5.39062 73.0365 5.73958 74.2031 6.4375C75.3698 7.13542 76.1458 8.01562 76.5312 9.07812C76.9167 10.1406 77.1094 11.6458 77.1094 13.5938ZM85.3125 1.20312V6.89062C85.8542 6.39062 86.4375 6.01562 87.0625 5.76562C87.6979 5.51562 88.375 5.39062 89.0938 5.39062C90.1979 5.39062 91.1354 5.67188 91.9062 6.23438C92.6875 6.79688 93.1615 7.44792 93.3281 8.1875C93.5052 8.91667 93.5938 10.2552 93.5938 12.2031V26.5H87.2812V11.9062C87.2812 10.6979 87.2188 9.92188 87.0938 9.57812C86.9792 9.23438 86.7135 9.0625 86.2969 9.0625C85.9115 9.0625 85.651 9.23958 85.5156 9.59375C85.3802 9.94792 85.3125 10.651 85.3125 11.7031V26.5H79V1.20312H85.3125ZM110.078 16.5H101.906V20.9844C101.906 21.9219 101.974 22.526 102.109 22.7969C102.245 23.0677 102.505 23.2031 102.891 23.2031C103.37 23.2031 103.688 23.026 103.844 22.6719C104.01 22.3073 104.094 21.6094 104.094 20.5781V17.8438H110.078V19.375C110.078 20.6562 109.995 21.6406 109.828 22.3281C109.672 23.0156 109.297 23.75 108.703 24.5312C108.109 25.3125 107.354 25.901 106.438 26.2969C105.531 26.6823 104.391 26.875 103.016 26.875C101.682 26.875 100.505 26.6823 99.4844 26.2969C98.4635 25.9115 97.6667 25.3854 97.0938 24.7188C96.5312 24.0417 96.1406 23.3021 95.9219 22.5C95.7031 21.6875 95.5938 20.5104 95.5938 18.9688V12.9219C95.5938 11.1094 95.8385 9.68229 96.3281 8.64062C96.8177 7.58854 97.6198 6.78646 98.7344 6.23438C99.849 5.67188 101.13 5.39062 102.578 5.39062C104.349 5.39062 105.807 5.72917 106.953 6.40625C108.109 7.07292 108.917 7.96354 109.375 9.07812C109.844 10.1823 110.078 11.7396 110.078 13.75V16.5ZM103.75 13.125V11.6094C103.75 10.5365 103.693 9.84375 103.578 9.53125C103.464 9.21875 103.229 9.0625 102.875 9.0625C102.438 9.0625 102.167 9.19792 102.062 9.46875C101.958 9.72917 101.906 10.4427 101.906 11.6094V13.125H103.75ZM118.656 1.20312V4.5H112.156V1.20312H118.656ZM118.656 5.76562V26.5H112.156V5.76562H118.656ZM133.828 12.3906H128.234V11.2656C128.234 10.3073 128.177 9.70312 128.062 9.45312C127.958 9.19271 127.688 9.0625 127.25 9.0625C126.896 9.0625 126.63 9.18229 126.453 9.42188C126.276 9.65104 126.188 10 126.188 10.4688C126.188 11.1042 126.229 11.5729 126.312 11.875C126.406 12.1667 126.672 12.4896 127.109 12.8438C127.557 13.1979 128.469 13.7135 129.844 14.3906C131.677 15.2865 132.88 16.1302 133.453 16.9219C134.026 17.7135 134.312 18.8646 134.312 20.375C134.312 22.0625 134.094 23.3385 133.656 24.2031C133.219 25.0573 132.484 25.7188 131.453 26.1875C130.432 26.6458 129.198 26.875 127.75 26.875C126.146 26.875 124.771 26.625 123.625 26.125C122.49 25.625 121.708 24.9479 121.281 24.0938C120.854 23.2396 120.641 21.9479 120.641 20.2188V19.2188H126.234V20.5312C126.234 21.6458 126.302 22.3698 126.438 22.7031C126.583 23.0365 126.865 23.2031 127.281 23.2031C127.729 23.2031 128.042 23.0938 128.219 22.875C128.396 22.6458 128.484 22.1719 128.484 21.4531C128.484 20.4635 128.37 19.8438 128.141 19.5938C127.901 19.3438 126.677 18.6042 124.469 17.375C122.615 16.3333 121.484 15.3906 121.078 14.5469C120.672 13.6927 120.469 12.6823 120.469 11.5156C120.469 9.85938 120.688 8.64062 121.125 7.85938C121.562 7.06771 122.302 6.45833 123.344 6.03125C124.396 5.60417 125.615 5.39062 127 5.39062C128.375 5.39062 129.542 5.56771 130.5 5.92188C131.469 6.26562 132.208 6.72396 132.719 7.29688C133.24 7.86979 133.552 8.40104 133.656 8.89062C133.771 9.38021 133.828 10.1458 133.828 11.1875V12.3906ZM142.312 1.20312V6.89062C142.854 6.39062 143.438 6.01562 144.062 5.76562C144.698 5.51562 145.375 5.39062 146.094 5.39062C147.198 5.39062 148.135 5.67188 148.906 6.23438C149.688 6.79688 150.161 7.44792 150.328 8.1875C150.505 8.91667 150.594 10.2552 150.594 12.2031V26.5H144.281V11.9062C144.281 10.6979 144.219 9.92188 144.094 9.57812C143.979 9.23438 143.714 9.0625 143.297 9.0625C142.911 9.0625 142.651 9.23958 142.516 9.59375C142.38 9.94792 142.312 10.651 142.312 11.7031V26.5H136V1.20312H142.312ZM165.828 5.76562L162.875 26.5H154.641L151.469 5.76562H157.109L158.875 20.8906C159.01 19.7865 159.24 17.0781 159.562 12.7656C159.75 10.3594 159.958 8.02604 160.188 5.76562H165.828ZM173.281 1.20312V4.5H166.781V1.20312H173.281ZM173.281 5.76562V26.5H166.781V5.76562H173.281ZM182.062 1.20312V26.5H175.562V1.20312H182.062ZM190.844 1.20312V4.5H184.344V1.20312H190.844ZM190.844 5.76562V26.5H184.344V5.76562H190.844ZM193.016 5.71875L208.047 11.9688V15.1562L193.016 21.4375V17.3125L202.297 13.5781L193.016 9.85938V5.71875Z" fill="#FF8303"/>
</svg>
