<svg width="116" height="27" viewBox="0 0 116 27" fill="none" xmlns="http://www.w3.org/2000/svg">
<path d="M15.6719 11.7344H9.09375V7.32812C9.09375 6.04688 9.02083 5.25 8.875 4.9375C8.73958 4.61458 8.43229 4.45312 7.95312 4.45312C7.41146 4.45312 7.06771 4.64583 6.92188 5.03125C6.77604 5.41667 6.70312 6.25 6.70312 7.53125V19.2812C6.70312 20.5104 6.77604 21.3125 6.92188 21.6875C7.06771 22.0625 7.39583 22.25 7.90625 22.25C8.39583 22.25 8.71354 22.0625 8.85938 21.6875C9.01562 21.3125 9.09375 20.4323 9.09375 19.0469V15.875H15.6719V16.8594C15.6719 19.474 15.4844 21.3281 15.1094 22.4219C14.7448 23.5156 13.9271 24.474 12.6562 25.2969C11.3958 26.1198 9.83854 26.5312 7.98438 26.5312C6.05729 26.5312 4.46875 26.1823 3.21875 25.4844C1.96875 24.7865 1.14062 23.8229 0.734375 22.5938C0.328125 21.3542 0.125 19.4948 0.125 17.0156V9.625C0.125 7.80208 0.1875 6.4375 0.3125 5.53125C0.4375 4.61458 0.807292 3.73438 1.42188 2.89062C2.04688 2.04688 2.90625 1.38542 4 0.90625C5.10417 0.416667 6.36979 0.171875 7.79688 0.171875C9.73438 0.171875 11.3333 0.546875 12.5938 1.29688C13.8542 2.04688 14.6823 2.98438 15.0781 4.10938C15.474 5.22396 15.6719 6.96354 15.6719 9.32812V11.7344ZM32.125 12.5469V17.625C32.125 19.4896 32.0312 20.8594 31.8438 21.7344C31.6562 22.599 31.2552 23.4115 30.6406 24.1719C30.026 24.9219 29.2344 25.4792 28.2656 25.8438C27.3073 26.1979 26.2031 26.375 24.9531 26.375C23.5573 26.375 22.375 26.224 21.4062 25.9219C20.4375 25.6094 19.6823 25.1458 19.1406 24.5312C18.6094 23.9062 18.2292 23.1562 18 22.2812C17.7708 21.3958 17.6562 20.0729 17.6562 18.3125V13C17.6562 11.0729 17.8646 9.56771 18.2812 8.48438C18.6979 7.40104 19.4479 6.53125 20.5312 5.875C21.6146 5.21875 23 4.89062 24.6875 4.89062C26.1042 4.89062 27.3177 5.10417 28.3281 5.53125C29.349 5.94792 30.1354 6.49479 30.6875 7.17188C31.2396 7.84896 31.6146 8.54688 31.8125 9.26562C32.0208 9.98438 32.125 11.0781 32.125 12.5469ZM25.8125 10.9844C25.8125 9.92188 25.7552 9.25521 25.6406 8.98438C25.526 8.70312 25.2812 8.5625 24.9062 8.5625C24.5312 8.5625 24.2812 8.70312 24.1562 8.98438C24.0312 9.25521 23.9688 9.92188 23.9688 10.9844V20.3438C23.9688 21.3229 24.0312 21.9635 24.1562 22.2656C24.2812 22.5573 24.526 22.7031 24.8906 22.7031C25.2656 22.7031 25.5104 22.5677 25.625 22.2969C25.75 22.026 25.8125 21.4427 25.8125 20.5469V10.9844ZM40.6406 5.26562L40.5312 7.17188C40.9896 6.41146 41.5469 5.84375 42.2031 5.46875C42.8698 5.08333 43.6354 4.89062 44.5 4.89062C45.5833 4.89062 46.4688 5.14583 47.1562 5.65625C47.8438 6.16667 48.2865 6.8125 48.4844 7.59375C48.6823 8.36458 48.7812 9.65625 48.7812 11.4688V26H42.4688V11.6406C42.4688 10.2135 42.4219 9.34375 42.3281 9.03125C42.2344 8.71875 41.974 8.5625 41.5469 8.5625C41.099 8.5625 40.8177 8.74479 40.7031 9.10938C40.5885 9.46354 40.5312 10.4219 40.5312 11.9844V26H34.2188V5.26562H40.6406ZM57.625 2.5V5.76562H59.3281V9.04688H57.625V20.1406C57.625 21.5052 57.6927 22.2656 57.8281 22.4219C57.974 22.5781 58.5625 22.6562 59.5938 22.6562V26H57.0469C55.6094 26 54.5833 25.9427 53.9688 25.8281C53.3542 25.7031 52.8125 25.4271 52.3438 25C51.875 24.5625 51.5833 24.0677 51.4688 23.5156C51.3542 22.9531 51.2969 21.6406 51.2969 19.5781V9.04688H49.9375V5.76562H51.2969V2.5H57.625ZM66.3594 13.2969H60.4375V11.9062C60.4375 10.3021 60.6198 9.06771 60.9844 8.20312C61.3594 7.32812 62.1042 6.55729 63.2188 5.89062C64.3333 5.22396 65.7812 4.89062 67.5625 4.89062C69.6979 4.89062 71.3073 5.27083 72.3906 6.03125C73.474 6.78125 74.125 7.70833 74.3438 8.8125C74.5625 9.90625 74.6719 12.1667 74.6719 15.5938V26H68.5312V24.1562C68.1458 24.8958 67.6458 25.4531 67.0312 25.8281C66.4271 26.1927 65.7031 26.375 64.8594 26.375C63.7552 26.375 62.7396 26.0677 61.8125 25.4531C60.8958 24.8281 60.4375 23.4688 60.4375 21.375V19.6719C60.4375 18.1198 60.6823 17.0625 61.1719 16.5C61.6615 15.9375 62.875 15.2812 64.8125 14.5312C66.8854 13.7188 67.9948 13.1719 68.1406 12.8906C68.2865 12.6094 68.3594 12.0365 68.3594 11.1719C68.3594 10.0885 68.276 9.38542 68.1094 9.0625C67.9531 8.72917 67.6875 8.5625 67.3125 8.5625C66.8854 8.5625 66.6198 8.70312 66.5156 8.98438C66.4115 9.25521 66.3594 9.96875 66.3594 11.125V13.2969ZM68.3594 16.1406C67.349 16.8802 66.7604 17.5 66.5938 18C66.4375 18.5 66.3594 19.2188 66.3594 20.1562C66.3594 21.2292 66.4271 21.9219 66.5625 22.2344C66.7083 22.5469 66.9896 22.7031 67.4062 22.7031C67.8021 22.7031 68.0573 22.5833 68.1719 22.3438C68.2969 22.0938 68.3594 21.4479 68.3594 20.4062V16.1406ZM90.7969 13.0938H84.8438V10.7031C84.8438 9.86979 84.776 9.30729 84.6406 9.01562C84.5052 8.71354 84.2552 8.5625 83.8906 8.5625C83.526 8.5625 83.2812 8.69271 83.1562 8.95312C83.0312 9.21354 82.9688 9.79688 82.9688 10.7031V20.4844C82.9688 21.224 83.0625 21.7812 83.25 22.1562C83.4375 22.5208 83.7135 22.7031 84.0781 22.7031C84.5052 22.7031 84.7917 22.5104 84.9375 22.125C85.0938 21.7396 85.1719 21.0104 85.1719 19.9375V17.4688H90.7969C90.7865 19.125 90.724 20.3698 90.6094 21.2031C90.5052 22.026 90.1562 22.875 89.5625 23.75C88.9792 24.6146 88.2135 25.2708 87.2656 25.7188C86.3177 26.1562 85.1458 26.375 83.75 26.375C81.9688 26.375 80.5573 26.0729 79.5156 25.4688C78.474 24.8542 77.7344 24 77.2969 22.9062C76.8698 21.8021 76.6562 20.2396 76.6562 18.2188V12.3281C76.6562 10.5677 76.8333 9.23958 77.1875 8.34375C77.5417 7.44792 78.2969 6.65104 79.4531 5.95312C80.6094 5.24479 82.0156 4.89062 83.6719 4.89062C85.3177 4.89062 86.724 5.23958 87.8906 5.9375C89.0573 6.63542 89.8333 7.51562 90.2188 8.57812C90.6042 9.64062 90.7969 11.1458 90.7969 13.0938ZM99.3438 2.5V5.76562H101.047V9.04688H99.3438V20.1406C99.3438 21.5052 99.4115 22.2656 99.5469 22.4219C99.6927 22.5781 100.281 22.6562 101.312 22.6562V26H98.7656C97.3281 26 96.3021 25.9427 95.6875 25.8281C95.0729 25.7031 94.5312 25.4271 94.0625 25C93.5938 24.5625 93.3021 24.0677 93.1875 23.5156C93.0729 22.9531 93.0156 21.6406 93.0156 19.5781V9.04688H91.6562V5.76562H93.0156V2.5H99.3438ZM115.328 11.8906H109.734V10.7656C109.734 9.80729 109.677 9.20312 109.562 8.95312C109.458 8.69271 109.188 8.5625 108.75 8.5625C108.396 8.5625 108.13 8.68229 107.953 8.92188C107.776 9.15104 107.688 9.5 107.688 9.96875C107.688 10.6042 107.729 11.0729 107.812 11.375C107.906 11.6667 108.172 11.9896 108.609 12.3438C109.057 12.6979 109.969 13.2135 111.344 13.8906C113.177 14.7865 114.38 15.6302 114.953 16.4219C115.526 17.2135 115.812 18.3646 115.812 19.875C115.812 21.5625 115.594 22.8385 115.156 23.7031C114.719 24.5573 113.984 25.2188 112.953 25.6875C111.932 26.1458 110.698 26.375 109.25 26.375C107.646 26.375 106.271 26.125 105.125 25.625C103.99 25.125 103.208 24.4479 102.781 23.5938C102.354 22.7396 102.141 21.4479 102.141 19.7188V18.7188H107.734V20.0312C107.734 21.1458 107.802 21.8698 107.938 22.2031C108.083 22.5365 108.365 22.7031 108.781 22.7031C109.229 22.7031 109.542 22.5938 109.719 22.375C109.896 22.1458 109.984 21.6719 109.984 20.9531C109.984 19.9635 109.87 19.3438 109.641 19.0938C109.401 18.8438 108.177 18.1042 105.969 16.875C104.115 15.8333 102.984 14.8906 102.578 14.0469C102.172 13.1927 101.969 12.1823 101.969 11.0156C101.969 9.35938 102.188 8.14062 102.625 7.35938C103.062 6.56771 103.802 5.95833 104.844 5.53125C105.896 5.10417 107.115 4.89062 108.5 4.89062C109.875 4.89062 111.042 5.06771 112 5.42188C112.969 5.76562 113.708 6.22396 114.219 6.79688C114.74 7.36979 115.052 7.90104 115.156 8.39062C115.271 8.88021 115.328 9.64583 115.328 10.6875V11.8906Z" fill="#FF8303"/>
</svg>
