<svg width="300" height="300" viewBox="0 0 300 300" fill="none" xmlns="http://www.w3.org/2000/svg">
<rect width="300" height="300" rx="1" fill="#0E1010"/>
<path d="M201.962 139.133C201.962 149.045 200.033 158.054 196.176 166.159C192.318 174.216 187.265 180.905 181.015 186.228C174.521 191.745 167.27 195.92 159.262 198.752C151.303 201.584 142.953 203 134.213 203H88.876L89.9746 198.166C91.2441 198.166 93.0264 198.044 95.3213 197.8C97.665 197.556 99.3252 197.238 100.302 196.848C102.06 196.164 103.378 195.212 104.257 193.991C105.185 192.722 105.819 191.232 106.161 189.523L123.446 114.743C123.593 114.157 123.715 113.522 123.812 112.839C123.959 112.106 124.032 111.521 124.032 111.081C124.032 110.007 123.837 109.079 123.446 108.298C123.104 107.468 122.372 106.784 121.249 106.247C119.979 105.661 118.417 105.173 116.562 104.782C114.706 104.343 113.29 104.05 112.313 103.903L113.412 99.0693H157.431C161.825 99.0693 166.61 99.7041 171.786 100.974C176.962 102.194 181.796 104.318 186.288 107.346C191.024 110.52 194.809 114.768 197.641 120.09C200.521 125.363 201.962 131.711 201.962 139.133ZM184.75 139.206C184.75 128.269 181.82 119.772 175.961 113.718C170.102 107.663 162.313 104.636 152.597 104.636C150.595 104.636 148.52 104.685 146.371 104.782C144.223 104.831 142.538 104.88 141.317 104.929L122.714 185.568C122.567 186.252 122.445 186.911 122.348 187.546C122.25 188.181 122.201 188.791 122.201 189.377C122.201 192.307 123.422 194.382 125.863 195.603C128.305 196.774 132.309 197.36 137.875 197.36C145.15 197.36 151.767 195.7 157.724 192.38C163.729 189.06 168.71 184.641 172.665 179.123C176.718 173.41 179.745 167.185 181.747 160.446C183.749 153.708 184.75 146.628 184.75 139.206Z" fill="white"/>
<path d="M208.976 99.0693L207.877 103.903C207.633 103.903 206.705 104.001 205.094 104.196C203.483 104.343 201.896 104.587 200.333 104.929C198.38 105.368 196.476 105.979 194.62 106.76C192.814 107.492 191.105 108.566 189.493 109.982C183.097 115.695 176.212 121.848 168.839 128.439C161.466 134.982 154.557 140.866 148.112 146.091C152.457 152.878 156.632 159.592 160.636 166.232C164.689 172.873 168.595 179.416 172.355 185.861C173.722 188.205 175.236 190.28 176.896 192.087C178.605 193.894 180.241 195.236 181.803 196.115C182.877 196.75 184.391 197.238 186.344 197.58C188.297 197.922 189.884 198.117 191.105 198.166L189.86 203H163.419C159.513 194.553 155.216 186.228 150.529 178.024C145.841 169.821 140.714 161.691 135.148 153.635H131.119L122.99 188.718C122.892 189.108 122.819 189.523 122.77 189.963C122.721 190.354 122.697 190.769 122.697 191.208C122.697 192.38 122.867 193.332 123.209 194.064C123.551 194.797 124.332 195.48 125.553 196.115C126.188 196.457 127.579 196.872 129.728 197.36C131.925 197.849 133.585 198.117 134.708 198.166L133.61 203H90.47L91.5686 198.166C92.7894 198.068 94.4739 197.922 96.6224 197.727C98.7708 197.531 100.333 197.238 101.31 196.848C103.068 196.164 104.386 195.212 105.265 193.991C106.193 192.722 106.827 191.232 107.169 189.523L124.674 113.791C124.772 113.352 124.845 112.912 124.894 112.473C124.943 112.033 124.967 111.594 124.967 111.154C124.967 110.08 124.747 109.152 124.308 108.371C123.868 107.59 123.16 106.955 122.184 106.467C121.305 105.979 119.962 105.49 118.156 105.002C116.398 104.465 114.786 104.099 113.322 103.903L114.42 99.0693H157.56L156.461 103.903C155.094 103.952 153.336 104.172 151.188 104.562C149.039 104.953 147.428 105.319 146.354 105.661C144.547 106.247 143.204 107.248 142.325 108.664C141.447 110.031 140.812 111.496 140.421 113.059L131.925 150.046H133.39C140.372 145.114 147.257 139.719 154.044 133.859C160.831 128 166.373 122.873 170.67 118.479C173.307 115.793 175.309 113.547 176.676 111.74C178.092 109.885 178.8 108.371 178.8 107.199C178.8 106.32 177.946 105.588 176.237 105.002C174.576 104.416 172.135 104.05 168.912 103.903L170.011 99.0693H208.976Z" fill="white"/>
</svg>
