<svg width="32" height="32" viewBox="0 0 32 32" fill="none" xmlns="http://www.w3.org/2000/svg">
<path d="M27.0894 5.54087C25.0498 4.60502 22.8626 3.91554 20.5759 3.52064C20.5342 3.51302 20.4926 3.53206 20.4712 3.57016C20.1899 4.07044 19.8783 4.72311 19.6601 5.2361C17.2005 4.86787 14.7536 4.86787 12.3444 5.2361C12.1262 4.71171 11.8033 4.07044 11.5208 3.57016C11.4993 3.53333 11.4577 3.51429 11.4161 3.52064C9.13055 3.91427 6.94341 4.60376 4.90258 5.54087C4.88491 5.54848 4.86977 5.56119 4.85972 5.57769C0.711189 11.7755 -0.425267 17.821 0.13224 23.7915C0.134763 23.8207 0.15116 23.8487 0.173864 23.8664C2.91095 25.8765 5.56228 27.0967 8.16437 27.9056C8.20602 27.9183 8.25014 27.9031 8.27664 27.8688C8.89217 27.0282 9.44086 26.1419 9.9113 25.2098C9.93906 25.1552 9.91256 25.0905 9.85582 25.0689C8.98551 24.7387 8.1568 24.3362 7.35964 23.8791C7.29659 23.8423 7.29154 23.7521 7.34954 23.7089C7.5173 23.5832 7.68509 23.4524 7.84527 23.3204C7.87425 23.2963 7.91464 23.2912 7.94871 23.3064C13.1857 25.6974 18.8554 25.6974 24.0306 23.3064C24.0647 23.2899 24.1051 23.295 24.1353 23.3191C24.2955 23.4512 24.4633 23.5832 24.6323 23.7089C24.6903 23.7521 24.6865 23.8423 24.6235 23.8791C23.8263 24.3451 22.9976 24.7387 22.126 25.0676C22.0693 25.0892 22.044 25.1552 22.0718 25.2098C22.5523 26.1406 23.101 27.0269 23.7052 27.8675C23.7304 27.9031 23.7758 27.9183 23.8175 27.9056C26.4322 27.0967 29.0835 25.8765 31.8206 23.8664C31.8446 23.8487 31.8597 23.822 31.8622 23.7928C32.5294 16.8902 30.7447 10.8943 27.131 5.57895C27.1221 5.56119 27.107 5.54848 27.0894 5.54087ZM10.6934 20.1561C9.11666 20.1561 7.81751 18.7086 7.81751 16.9308C7.81751 15.1531 9.09147 13.7056 10.6934 13.7056C12.3078 13.7056 13.5944 15.1658 13.5692 16.9308C13.5692 18.7086 12.2952 20.1561 10.6934 20.1561ZM21.3263 20.1561C19.7497 20.1561 18.4505 18.7086 18.4505 16.9308C18.4505 15.1531 19.7244 13.7056 21.3263 13.7056C22.9408 13.7056 24.2274 15.1658 24.2022 16.9308C24.2022 18.7086 22.9408 20.1561 21.3263 20.1561Z" fill="#F0E3CA"/>
</svg>
