<svg width="22" height="32" viewBox="0 0 22 32" fill="none" xmlns="http://www.w3.org/2000/svg">
<path fill-rule="evenodd" clip-rule="evenodd" d="M6.22 0C2.95734 0 0.333337 2.73733 0.333337 6.09067C0.333337 8.12933 1.304 9.94 2.796 11.0453C2.02704 11.6214 1.40375 12.3697 0.976089 13.2301C0.548428 14.0905 0.328295 15.0392 0.333337 16C0.333337 18.04 1.304 19.8493 2.796 20.9547C2.02704 21.5308 1.40375 22.279 0.976089 23.1395C0.548428 23.9999 0.328295 24.9485 0.333337 25.9093C0.333337 29.2627 2.95734 32 6.22 32C9.48134 32 12.1067 29.2627 12.1067 25.9093V20.76C13.1378 21.6197 14.4375 22.091 15.78 22.092C19.0427 22.0907 21.6667 19.3533 21.6667 16C21.672 15.0391 21.452 14.0904 21.0243 13.2299C20.5967 12.3694 19.9732 11.6212 19.204 11.0453C19.973 10.4692 20.5963 9.72096 21.0239 8.86055C21.4516 8.00013 21.6717 7.05149 21.6667 6.09067C21.6667 2.73733 19.0427 0 15.78 0H6.22ZM2.54534 6.09067C2.54534 3.96933 4.20134 2.27067 6.22 2.27067H9.89334V9.91067H6.22C4.20134 9.91067 2.54534 8.21067 2.54534 6.09067ZM15.78 9.90933H12.1067V2.26933H15.78C17.8 2.26933 19.4547 3.96933 19.4547 6.09067C19.4547 8.21067 17.8 9.90933 15.78 9.90933ZM2.54667 16C2.54667 13.88 4.20267 12.18 6.22134 12.18H9.89467V19.82H6.22C4.2 19.82 2.54534 18.12 2.54534 16H2.54667ZM12.1067 16C12.1067 13.88 13.7627 12.18 15.7813 12.18C17.8013 12.18 19.456 13.8787 19.456 16C19.456 18.12 17.8013 19.82 15.7813 19.82C13.7627 19.82 12.108 18.1213 12.108 16H12.1067ZM2.54667 25.9093C2.54667 23.7893 4.20267 22.0907 6.22134 22.0907H9.89467V25.9093C9.89467 28.0307 8.24134 29.7293 6.22134 29.7293C4.20267 29.7293 2.54667 28.0307 2.54667 25.9093Z" fill="#F0E3CA"/>
</svg>
